<?xml version="1.0" encoding="UTF-8"?>
<svg width="36.967mm" height="32.845mm" version="1.1" viewBox="0 0 36.967 32.845" xmlns="http://www.w3.org/2000/svg">
 <defs>
  <clipPath id="clipPath106">
   <path d="m5490.1 2530.4c-11.35-19.87-11.37-44.25-0.06-64.13l165.76-291.53c11.52-20.25 33.01-32.76 56.31-32.76h0.68c49.73 0 80.91 53.71 56.25 96.89l-166.43 291.53c-24.86 43.55-87.66 43.55-112.51 0z"/>
  </clipPath>
  <clipPath id="clipPath90">
   <path d="m5504.4 3040.9-461.5-803c-24.53-42.68 6.28-95.92 55.51-95.92 22.98 0 44.2 12.32 55.6 32.28l347.17 608.15c24.59 43.08 86.72 43.03 111.25-0.1l345.7-607.95c11.38-20.02 32.63-32.38 55.65-32.38h4.29c49.14 0 79.96 53.06 55.61 95.75l-458.17 803c-24.52 42.98-86.45 43.08-111.11 0.17z"/>
  </clipPath>
 </defs>
 <g transform="translate(-90.594 -97.398)">
  <g transform="matrix(.035278 0 0 -.035278 -87.003 205.81)">
   <g clip-path="url(#clipPath90)">
    <path d="m5504.4 3040.9-461.5-803c-24.53-42.68 6.28-95.92 55.51-95.92 22.98 0 44.2 12.32 55.6 32.28l347.17 608.15c24.59 43.08 86.72 43.03 111.25-0.1l345.7-607.95c11.38-20.02 32.63-32.38 55.65-32.38h4.29c49.14 0 79.96 53.06 55.61 95.75l-458.17 803c-24.52 42.98-86.45 43.08-111.11 0.17"/>
   </g>
  </g>
  <g transform="matrix(.035278 0 0 -.035278 -87.003 205.81)">
   <g clip-path="url(#clipPath106)">
    <path d="m5490.1 2530.4c-11.35-19.87-11.37-44.25-0.06-64.13l165.76-291.53c11.52-20.25 33.01-32.76 56.31-32.76h0.68c49.73 0 80.91 53.71 56.25 96.89l-166.43 291.53c-24.86 43.55-87.66 43.55-112.51 0"/>
   </g>
  </g>
  <path d="m101.3 125.95-0.0113 0.0205c-0.40041 0.70097-0.40111 1.561-2e-3 2.2627l0.48754 0.85725c0.4064 0.71437 1.1649 1.1553 1.9865 1.1553h0.0251c1.7544 0 2.8543-1.8948 1.9844-3.4181l-0.50059-0.87736c-0.877-1.5364-3.0921-1.5364-3.9694-3.5e-4"/>
 </g>
</svg>